<svg xmlns="http://www.w3.org/2000/svg">
    <symbol id="message" viewBox="0 0 16 16">
        <g>
            <path d="M7.25015 8C7.25015 8.19891 7.32917 8.38968 7.46982 8.53033C7.61047 8.67098 7.80124 8.75 8.00015 8.75C8.19906 8.75 8.38983 8.67098 8.53048 8.53033C8.67113 8.38968 8.75015 8.19891 8.75015 8C8.75015 7.80109 8.67113 7.61032 8.53048 7.46967C8.38983 7.32902 8.19906 7.25 8.00015 7.25C7.80124 7.25 7.61047 7.32902 7.46982 7.46967C7.32917 7.61032 7.25015 7.80109 7.25015 8ZM10.3751 8C10.3751 8.19891 10.4542 8.38968 10.5948 8.53033C10.7355 8.67098 10.9262 8.75 11.1251 8.75C11.3241 8.75 11.5148 8.67098 11.6555 8.53033C11.7961 8.38968 11.8751 8.19891 11.8751 8C11.8751 7.80109 11.7961 7.61032 11.6555 7.46967C11.5148 7.32902 11.3241 7.25 11.1251 7.25C10.9262 7.25 10.7355 7.32902 10.5948 7.46967C10.4542 7.61032 10.3751 7.80109 10.3751 8ZM4.12515 8C4.12515 8.19891 4.20417 8.38968 4.34482 8.53033C4.48547 8.67098 4.67624 8.75 4.87515 8.75C5.07406 8.75 5.26483 8.67098 5.40548 8.53033C5.54613 8.38968 5.62515 8.19891 5.62515 8C5.62515 7.80109 5.54613 7.61032 5.40548 7.46967C5.26483 7.32902 5.07406 7.25 4.87515 7.25C4.67624 7.25 4.48547 7.32902 4.34482 7.46967C4.20417 7.61032 4.12515 7.80109 4.12515 8ZM14.4564 5.2875C14.1033 4.44844 13.597 3.69531 12.9517 3.04844C12.3109 2.40531 11.5502 1.8941 10.7126 1.54375C9.85327 1.18281 8.94077 1 8.00015 1H7.9689C7.02202 1.00469 6.10484 1.19219 5.24234 1.56094C4.41196 1.91488 3.65837 2.427 3.02359 3.06875C2.38452 3.71406 1.88296 4.46406 1.53609 5.3C1.17671 6.16563 0.995462 7.08594 1.00015 8.03281C1.00545 9.11792 1.26217 10.187 1.75015 11.1562V13.5312C1.75015 13.7219 1.82587 13.9047 1.96067 14.0395C2.09546 14.1743 2.27828 14.25 2.4689 14.25H4.84546C5.81467 14.738 6.88379 14.9947 7.9689 15H8.00171C8.93765 15 9.84546 14.8188 10.7001 14.4641C11.5335 14.1179 12.2913 13.6126 12.9314 12.9766C13.5767 12.3375 14.0845 11.5906 14.4392 10.7578C14.808 9.89531 14.9955 8.97813 15.0001 8.03125C15.0048 7.07969 14.8205 6.15625 14.4564 5.2875ZM12.0955 12.1313C11.0001 13.2156 9.54702 13.8125 8.00015 13.8125H7.97359C7.0314 13.8078 6.09546 13.5734 5.2689 13.1328L5.13765 13.0625H2.93765V10.8625L2.86734 10.7312C2.42671 9.90469 2.19234 8.96875 2.18765 8.02656C2.1814 6.46875 2.77671 5.00625 3.8689 3.90469C4.95952 2.80312 6.41734 2.19375 7.97515 2.1875H8.00171C8.78296 2.1875 9.54077 2.33906 10.2548 2.63906C10.9517 2.93125 11.5767 3.35156 12.1142 3.88906C12.6501 4.425 13.072 5.05156 13.3642 5.74844C13.6673 6.47031 13.8189 7.23594 13.8158 8.02656C13.8064 9.58281 13.1955 11.0406 12.0955 12.1313Z" fill="#262626"/>
        </g>
    </symbol>

    <symbol id="more" viewBox="0 0 16 4">
        <g>
            <path d="M0.125 1.97656C0.125 2.14892 0.158949 2.3196 0.224908 2.47884C0.290867 2.63807 0.387546 2.78276 0.509422 2.90464C0.631299 3.02652 0.775988 3.12319 0.935228 3.18915C1.09447 3.25511 1.26514 3.28906 1.4375 3.28906C1.60986 3.28906 1.78053 3.25511 1.93977 3.18915C2.09901 3.12319 2.2437 3.02652 2.36558 2.90464C2.48745 2.78276 2.58413 2.63807 2.65009 2.47884C2.71605 2.3196 2.75 2.14892 2.75 1.97656C2.75 1.8042 2.71605 1.63353 2.65009 1.47429C2.58413 1.31505 2.48745 1.17036 2.36558 1.04848C2.2437 0.926608 2.09901 0.82993 1.93977 0.763971C1.78053 0.698012 1.60986 0.664063 1.4375 0.664063C1.26514 0.664063 1.09447 0.698012 0.935228 0.763971C0.775988 0.82993 0.631299 0.926608 0.509422 1.04848C0.387546 1.17036 0.290867 1.31505 0.224908 1.47429C0.158949 1.63353 0.125 1.8042 0.125 1.97656ZM6.6875 1.97656C6.6875 2.32466 6.82578 2.6585 7.07192 2.90464C7.31806 3.15078 7.6519 3.28906 8 3.28906C8.3481 3.28906 8.68194 3.15078 8.92808 2.90464C9.17422 2.6585 9.3125 2.32466 9.3125 1.97656C9.3125 1.62847 9.17422 1.29463 8.92808 1.04848C8.68194 0.802343 8.3481 0.664062 8 0.664063C7.6519 0.664062 7.31806 0.802343 7.07192 1.04848C6.82578 1.29463 6.6875 1.62847 6.6875 1.97656ZM13.25 1.97656C13.25 2.32466 13.3883 2.6585 13.6344 2.90464C13.8806 3.15078 14.2144 3.28906 14.5625 3.28906C14.9106 3.28906 15.2444 3.15078 15.4906 2.90464C15.7367 2.6585 15.875 2.32466 15.875 1.97656C15.875 1.62847 15.7367 1.29463 15.4906 1.04848C15.2444 0.802343 14.9106 0.664062 14.5625 0.664063C14.2144 0.664062 13.8806 0.802343 13.6344 1.04848C13.3883 1.29463 13.25 1.62847 13.25 1.97656Z" fill="#595959"/>
        </g>
    </symbol>

    <symbol id="clock" viewBox="0 0 16 16">
        <g>
           <path d="M8 1C4.13438 1 1 4.13438 1 8C1 11.8656 4.13438 15 8 15C11.8656 15 15 11.8656 15 8C15 4.13438 11.8656 1 8 1ZM8 13.8125C4.79063 13.8125 2.1875 11.2094 2.1875 8C2.1875 4.79063 4.79063 2.1875 8 2.1875C11.2094 2.1875 13.8125 4.79063 13.8125 8C13.8125 11.2094 11.2094 13.8125 8 13.8125Z"/>
            <path d="M10.7297 9.97811L8.50156 8.36718V4.5C8.50156 4.43125 8.44531 4.375 8.37656 4.375H7.625C7.55625 4.375 7.5 4.43125 7.5 4.5V8.80311C7.5 8.84374 7.51875 8.88124 7.55156 8.90467L10.1359 10.789C10.1922 10.8297 10.2703 10.8172 10.3109 10.7625L10.7578 10.1531C10.7984 10.0953 10.7859 10.0172 10.7297 9.97811Z" />
        </g>
    </symbol>
    <symbol id="notifications" viewBox="0 0 16 16">
        <g>
           <path d="M12.75 12H12.375V6.6875C12.375 4.48281 10.7453 2.66094 8.625 2.35781V1.75C8.625 1.40469 8.34531 1.125 8 1.125C7.65469 1.125 7.375 1.40469 7.375 1.75V2.35781C5.25469 2.66094 3.625 4.48281 3.625 6.6875V12H3.25C2.97344 12 2.75 12.2234 2.75 12.5V13C2.75 13.0688 2.80625 13.125 2.875 13.125H6.25C6.25 14.0906 7.03438 14.875 8 14.875C8.96562 14.875 9.75 14.0906 9.75 13.125H13.125C13.1938 13.125 13.25 13.0688 13.25 13V12.5C13.25 12.2234 13.0266 12 12.75 12ZM8 13.875C7.58594 13.875 7.25 13.5391 7.25 13.125H8.75C8.75 13.5391 8.41406 13.875 8 13.875ZM4.75 12V6.6875C4.75 5.81875 5.0875 5.00312 5.70156 4.38906C6.31562 3.775 7.13125 3.4375 8 3.4375C8.86875 3.4375 9.68437 3.775 10.2984 4.38906C10.9125 5.00312 11.25 5.81875 11.25 6.6875V12H4.75Z" fill="#262626"/>
        </g>
    </symbol>
    <symbol id="count" viewBox="0 0 17 22">
        <g opacity="0.85">
            <rect x="0.5" y="0.5" width="16" height="21" rx="3.5" fill="#F5F5F5" stroke="#D9D9D9"/>
            <path d="M8.68164 15H9.70117V6.54492H8.66992L6.41992 8.16211V9.27539L8.6582 7.66406H8.68164V15Z" fill="#595959"/>
        </g>
    </symbol>

    <symbol id="present" viewBox="0 0 24 24">
        <g>
            <path d="M12.7969 8.85938H19.7812V11.2969H12.7969V8.85938ZM5.34375 12.8906H11.2031V20.1094H5.34375V12.8906ZM4.21875 8.85938H11.2031V11.2969H4.21875V8.85938ZM12.7969 12.8906H18.6562V20.1094H12.7969V12.8906Z" fill="#E6F7FF"/>
            <path d="M20.625 7.26562H17.1656C17.4844 6.76406 17.6719 6.16875 17.6719 5.53125C17.6719 3.74766 16.2211 2.29688 14.4375 2.29688C13.4672 2.29688 12.593 2.72812 12 3.40781C11.407 2.72812 10.5328 2.29688 9.5625 2.29688C7.77891 2.29688 6.32812 3.74766 6.32812 5.53125C6.32812 6.16875 6.51328 6.76406 6.83438 7.26562H3.375C2.96016 7.26562 2.625 7.60078 2.625 8.01562V12.7031C2.625 12.8062 2.70937 12.8906 2.8125 12.8906H3.75V20.9531C3.75 21.368 4.08516 21.7031 4.5 21.7031H19.5C19.9148 21.7031 20.25 21.368 20.25 20.9531V12.8906H21.1875C21.2906 12.8906 21.375 12.8062 21.375 12.7031V8.01562C21.375 7.60078 21.0398 7.26562 20.625 7.26562ZM11.2031 20.1094H5.34375V12.8906H11.2031V20.1094ZM11.2031 11.2969H4.21875V8.85938H11.2031V11.2969ZM11.2031 7.17188H9.5625C8.65781 7.17188 7.92188 6.43594 7.92188 5.53125C7.92188 4.62656 8.65781 3.89062 9.5625 3.89062C10.4672 3.89062 11.2031 4.62656 11.2031 5.53125V7.17188ZM12.7969 5.53125C12.7969 4.62656 13.5328 3.89062 14.4375 3.89062C15.3422 3.89062 16.0781 4.62656 16.0781 5.53125C16.0781 6.43594 15.3422 7.17188 14.4375 7.17188H12.7969V5.53125ZM18.6562 20.1094H12.7969V12.8906H18.6562V20.1094ZM19.7812 11.2969H12.7969V8.85938H19.7812V11.2969Z" fill="#1890FF"/>
        <g>
    </symbol>
</svg>
